<?xml version="1.0" encoding="UTF-8"?>
<svg id="_圖層_1" data-name="圖層 1" xmlns="http://www.w3.org/2000/svg" viewBox="0 0 841.89 195.97">
  <defs>
    <style>
      .cls-1 {
        fill: #00323f;
        stroke-width: 0px;
      }
    </style>
  </defs>
  <g>
    <circle class="cls-1" cx="85.07" cy="23.29" r="23.29"/>
    <g>
      <path class="cls-1" d="m9.72,78.56c1.73,2.26,5.43,5.97,12.35,6.28,6.46.29,10.52-1.05,12.63-1.34,4.48-.62,7.5-.75,9.88-.75,14.81.24,27.43,1.74,40.47,2.08,13.05-.35,25.67-1.85,40.47-2.08,2.39,0,5.4.13,9.88.75,2.12.29,6.17,1.63,12.63,1.34,6.92-.31,10.62-4.02,12.35-6.28,2.01-2.62,6.72-9.6,9.45-13.69.76-1.14-.23-2.63-1.58-2.36-5.44,1.1-15.39,3.08-18.46,3.6-2.96.5-10.55,1.28-18.6,2.31-14.97,1.91-29.86,3.98-46.16,4.39-16.3-.41-31.2-2.49-46.16-4.39-8.06-1.03-15.65-1.81-18.6-2.31-3.07-.52-13.02-2.51-18.46-3.6-1.35-.27-2.34,1.22-1.58,2.36,2.73,4.09,7.44,11.07,9.45,13.69Z"/>
      <path class="cls-1" d="m168.29,100.81c-5.44,1.1-15.39,3.08-18.46,3.6-2.96.5-10.55,1.28-18.6,2.31-14.97,1.91-29.86,3.98-46.16,4.39-16.3-.41-31.2-2.49-46.16-4.39-8.06-1.03-15.65-1.81-18.6-2.31-3.07-.52-13.02-2.51-18.46-3.6-1.35-.27-2.34,1.22-1.58,2.36,2.73,4.09,7.44,11.07,9.45,13.69,1.73,2.26,5.43,5.97,12.35,6.28,6.46.29,10.52-1.05,12.63-1.34,4.48-.62,7.5-.75,9.88-.75,14.81.24,27.43,1.74,40.47,2.08,13.05-.35,25.67-1.85,40.47-2.08,2.39,0,5.4.13,9.88.75,2.12.29,6.17,1.63,12.63,1.34,6.92-.31,10.62-4.02,12.35-6.28,2.01-2.62,6.72-9.6,9.45-13.69.76-1.14-.23-2.63-1.58-2.36Z"/>
      <path class="cls-1" d="m168.29,139.11c-5.44,1.1-15.39,3.08-18.46,3.6-2.96.5-10.55,1.28-18.6,2.31-14.97,1.91-29.86,3.98-46.16,4.39-16.3-.41-31.2-2.49-46.16-4.39-8.06-1.03-15.65-1.81-18.6-2.31-3.07-.52-13.02-2.51-18.46-3.6-1.35-.27-2.34,1.22-1.58,2.36,2.73,4.09,7.44,11.07,9.45,13.69,1.73,2.26,5.43,5.97,12.35,6.28,6.46.29,10.52-1.05,12.63-1.34,4.48-.62,7.5-.75,9.88-.75,14.81.24,27.43,1.74,40.47,2.08,13.05-.35,25.67-1.85,40.47-2.08,2.39,0,5.4.13,9.88.75,2.12.29,6.17,1.63,12.63,1.34,6.92-.31,10.62-4.02,12.35-6.28,2.01-2.62,6.72-9.6,9.45-13.69.76-1.14-.23-2.63-1.58-2.36Z"/>
    </g>
  </g>
  <g>
    <circle class="cls-1" cx="283.08" cy="50.64" r="12.42"/>
    <path class="cls-1" d="m417.55,76.19c-4.83-5.17-11.36-7.53-17.68-9.46-5.41.04-8.57,5.94-13.2,8.19-4.46,2.28-8.49,6.13-13.56,6.55-1.17,0-2.33-.07-3.5-.14-3.36-.21-6.06,2.72-5.58,6.05.17,1.15.28,2.29.24,3.44-.74,1.13-1.61,2.11-2.56,2.99-1.8-3.66-9.1-3.39-15.13,1.06l-3.16,2.43.66-7.28c.66-8.45,2.37-10.03,10.67-10.24,3.03-.11,5.8-.11,6.46,0,.53,0,.92-1.27.92-2.96,0-3.48-1.58-4.22-10.54-5.07-3.29-.32-7.9-1.37-10.41-2.43l-4.48-1.79,8.04-6.76c8.69-7.07,9.48-8.87,5.93-12.46-1.84-1.79-4.35-2.43-10.28-2.85-11.46-.84-11.33-.84-9.62-4.86.79-1.9,5.66-9.61,6.85-11.82,1.98-3.8,1.98-4.33.13-6.65-2.24-2.74-5.53-4.01-13.17-5.17-2.74-.42-3.82-.92-4.11-.23-.49,1.16.35.91,1.22,2.02,2.5,3.27,3.82,18.37,1.58,21.64-1.05,1.69-1.98,3.91-1.98,4.96,0,2.96,5.66,10.03,8.96,11.3,3.95,1.37,3.16,3.27-2.11,5.28-2.9,1.06-4.08,2.11-3.69,3.38.26,1.16-2.11,4.54-5.93,8.45-8.43,8.45-9.35,9.4-13.44,11.93-1.7,1.52-4.25,5.05-4.87,6.33-1.26,2.35,3.29,8.66,6.85,10.13,3.16,1.37,13.09-1.77,16.86-3.8,3.31-1.72,4.22-1.58,3.29,6.76-.5,4.4-.45,9.76.05,11.66l-4.51,3.8c-.84-2.99.34-6.67-1.44-11.07-.9-2.23-5.53-3.29-8.74-3.76-1.48-.22-2.7,1.14-2.3,2.58.82,2.94,2.01,7.38,2.46,9.9.84,4.69.49,3.29,1,7.41-2.39,1.61-8.59,2.92-12.54,3.63-1.4.25-1.89,2-.82,2.94,4.1,3.61,8.37,9.52,11.08,11.12,2.2,1.3,4.76,2.79,6.95,1.47,3.43-2.06,1.48-2.47,7.7-8.6,3.1-3.05,7.73-8.83,12.79-12.31,8.2-5.65,15.18-8.76,21.47-10.98,3.78-1.82,4.74-.17,4.73,1.76.66,8.52,1.42,15.3,1.22,23.87-.16,10.59.27,21.18.46,31.76.07,8.25,2.61,16.1,4.42,23.98.46,2.01,3.22,2.34,4.06.46,3.29-7.33,4.16-15.47,5.13-23.46.03-4.37.94-8.75.05-13.09-.3-9.3-.64-18.61-.6-27.92,8.06-3.41,16.4-7.04,22.57-14.04,2.92-2.36,6.36-4.21,8.5-7.56,2.64-6.89,4.03-14.29,6.47-21.28,1.16-3.56,2.36-7.84.17-11.19Zm-93.89,5.9q-3.03,1.27-.53-1.06c2.77-2.43,3.43-2.74,3.43-1.16,0,.53-1.32,1.58-2.9,2.22Zm20.42,19.43c1.92.57,3.89.85,5.84.94-2.47,2.02-5.04,3.96-7.76,5.5.12-1.01.21-2.06.21-2.95,0-2.74.53-3.8,1.71-3.48Zm53.55,1.9c-1.63,2.77-8.79,7.61-13.93,11.07-2.36,1.59-5.52,0-5.69-2.85-.3-4.96.09-11.18.62-15.39.19-1.48,1.2-2.7,2.6-3.21,3.14-1.16,8.93-3.97,13.13-5.52,2.11-.78,4.39.75,4.42,3,.06,4.47-.47,10.64-1.16,12.9Z"/>
    <path class="cls-1" d="m281.07,78.79c14.8,5.63,17.12,8.28,12.59,14.47q-2.76,3.65-1.99,24.08c.66,19.99.22,25.08-2.98,33.25-1.55,3.87-9.06,9.83-13.03,10.38-1.16.15-5.02.51-8.1.78-1.24.11-1.98-1.34-1.17-2.29,1.94-2.29,4.06-5.28,4.96-6.99,1.44-2.65,2.65-5.19,2.76-5.85.11-.55,1.55-4.64,3.09-8.84,1.87-5.55,2.98-9.39,2.87-18.78,0-9.07-.81-16.84-3.77-35.62-.21-1.34-.48-2.67-.74-4-.2-1-.52-1.93.33-2.41.49-.28,5.17,1.82,5.17,1.82Z"/>
  </g>
  <g>
    <path class="cls-1" d="m767.49,35.73c-15.37,3.23-33.5,8.55-51.87,15.02-6.47,2.31-15.25,3-16.06,2.66-2.08-.81-1.96-.23.12,5.2,1.73,4.27,6.82,8.43,9.36,7.51,1.62-.58,3.81,4.27,5.08,11.44,1.39,6.82-.46,36.85-2.77,45.98-6.01,24.26-6.9,26.01-12.34,27.15-6.23-.65-7.97.46-5.78,3.12.69.81,2.54,3.12,4.16,5.08,3.08,3.78,6.2,3.22,14.19-.23,9.7-4.62,13.52-5.78,27.96-8.2,23.57-4.04,40.55-2.43,61,5.66,7.51,3,12.94,2.43,20.33-2.08,4.43-3.39,14.09-15.25,16.52-18.37,5.43-7.16,5.89-9.13,1.73-8.2-3.81.81-24.72,3-34.31,3.58-15.25.92-31.89,3.35-49.1,7.16-16.98,3.7-33.79,8.86-35.47,6.82-.79-.96.12-1.85.81-3.7,1.96-5.08,2.77-30.85,1.39-42.28-2.08-16.75-7.68-29.71-9.01-33.5h0c-.07-2.81,1.39-5.42,3.83-6.81,2.23-1.28,5.07-2.83,7.84-4.28,24.03-12.48,32.58-14.79,50.25-13.52,13.86,1.04,20.68,1.04,21.6.12,1.39-1.39-.92-6.12-3.7-7.39-4.16-1.96-8.2-1.62-25.76,2.08Z"/>
    <path class="cls-1" d="m755.7,53.17c-1.47,2.36-10.74,16.29-16.06,22.18-1.85,1.96-3.58,2.89-4.85,2.54-3.12-1.04-2.54,9.7.69,11.44,1.27.69,2.66,1.73,3.12,2.43,1.87,2.46.64,15.12-1.76,22.83-.54,1.74-1.31,3.41-2.2,5-4.83,8.55-5.29,10.77-.14,8.64,4-1.65,7.62-4.14,10.65-7.23,4.24-4.31,7.09-9.33,7.09-17.57q0-5.89,3.81-5.89c1.96,0,4.85-.46,6.35-.92,2.2-.81,2.54-.58,2.54,2.43,0,4.62-3.12,14.9-6.59,21.26-3.93,7.16-3.12,8.55,2.54,4.74,2.54-1.73,5.66-3.23,6.93-3.23,3.47-.23,9.59-3.7,10.98-6.24,2.66-5.2-.12-13.05-6.82-19.18l-4.04-3.81,4.97-2.43c2.66-1.39,9.36-3.7,14.79-5.08,10.17-2.66,13.75-5.2,11.09-7.86-1.96-1.96-14.21-1.96-16.06-.23-.81.81-1.73,1.5-2.2,1.5-.35,0-6.47,2.89-13.52,6.35-7.05,3.47-13.52,6.35-14.21,6.35-.81,0-1.85-1.39-2.2-3-.46-1.62-2.31-3.81-4.16-4.85-3.81-2.2-3.93-3.7-.46-5.43,1.16-.69,5.78-3.23,10.17-5.66,6.12-3.47,8.43-4.16,9.94-3.23,1.27.81,2.89.69,5.43-.35,3.12-1.27,3.47-1.96,3.12-5.2-.58-4.97-1.16-5.78-6.7-8.09-6.93-3-11.33-3.67-12.25-2.2Z"/>
  </g>
  <g>
    <path class="cls-1" d="m538.38,37.98c-3.23,3.49-10.6,13.45-16.29,22.11-24.18,36.98-27.54,41.77-34.78,49.26-9.05,9.31-16.29,13.58-19.91,11.51-2.28-.96-2.46.62-1.03,3.1,3.75,5.95,7.37,7.76,12.93,6.72,6.08-1.16,22.11-17.97,28.71-30,15.13-27.93,31.03-50.3,37.89-53.53,1.94-.91,4.4-2.07,5.43-2.59,1.16-.52,1.81-2.2,1.55-4.01-.52-3.36-5.04-8.92-7.24-8.92-4.38,0-4.01,2.84-7.24,6.34Z"/>
    <path class="cls-1" d="m551.07,47.71c-2.66,1.74-1.2,2.12.36,1.91,6.58-.88,10.99,4.78,20.3,15.65,26.64,31.16,30.39,34.65,41.12,38.79,6.47,2.33,15.52,1.68,17.33-1.29.52-.91,3.75-1.94,7.11-2.2,4.01-.52,5.43-1.16,4.27-1.81-1.29-.91-1.16-1.16.65-1.16,2.97,0,2.84-1.68-.65-4.65-5.43-4.78-9.83-6.98-19.91-9.7-14.61-4.01-26.51-10.21-36.2-19.01-13.45-12.15-29.78-19.52-34.37-16.52Z"/>
    <path class="cls-1" d="m575.74,143.11c-4.53-2.46-7.24-2.97-13.71-2.59l-8.15.52.78-4.01c.39-2.07,1.81-5.04,3.36-6.47,1.49-1.49,3.61-2.12,5.67-1.74,1.97.37,4.59.54,7-.33,9.31-3.23,11.51-5.3,11.64-10.34,0-5.3-8.79-11.51-16.42-11.51-3.23,0-3.23.13-1.16,2.46,1.94,2.2,1.94,2.72-1.81,9.96-2.2,4.14-4.53,8.02-4.91,8.53-1.03,1.03-.65-14.74.52-21.85.65-4.53,4.53-7.63,7.89-6.34,2.59,1.03,9.05-5.56,8.4-8.53-.52-2.84-8.4-5.43-16.03-5.17-3.49,0-6.21-.39-6.21-.91,0-1.42,3.36-2.72,6.98-2.72,1.55,0,4.14-.91,5.69-2.07,4.53-3.1,3.36-8.28-2.33-11.12-6.59-3.23-11.77-2.84-17.59,1.16-2.72,1.81-9.05,5.3-13.84,7.5l-4.94,2.29c-1.93.9-2.38,3.44-.88,4.95,1.55,1.81,4.65,3.88,6.72,4.78s3.36,2.07,2.84,2.46c-.39.39-.13,1.55.65,2.46,2.2,2.59-12.8,9.05-16.03,6.98-2.24-1.26-5.95,6.39-4.66,8.79,1.7,3.18,6.71,1.41,13.03,1.24,3.56-.09,7.1-.64,10.52-1.66l.64,10.25c.02.31,0,.6.02.9l.92,18.25h0c.08.21.15.42.23.64q1.42,4.27-4.53,6.85c-10.67,4.76-15.02,6.28-18.21,5.71-1.21-.22-2.85.17-3.54,1.18-.94,1.38-2.39,3.57-2.87,5.38-1.03,4.01,5.22,1.95,11.3,1.95,2.72,0,10.21-1.94,16.42-4.4,15-5.69,20.82-6.47,31.81-3.75,8.28,1.94,9.05,1.94,11.12,0,2.97-2.97,1.03-5.82-6.34-9.7Z"/>
    <circle class="cls-1" cx="525.11" cy="134.23" r="9.32"/>
  </g>
</svg>