<?xml version="1.0" encoding="utf-8"?>
<!-- Generator: Adobe Illustrator 28.1.0, SVG Export Plug-In . SVG Version: 6.00 Build 0)  -->
<svg version="1.1" id="圖層_1" xmlns="http://www.w3.org/2000/svg" xmlns:xlink="http://www.w3.org/1999/xlink" x="0px" y="0px"
	 viewBox="0 0 170.1 170.1" style="enable-background:new 0 0 170.1 170.1;" xml:space="preserve">
<style type="text/css">
	.st0{fill:#00323F;}
</style>
<g>
	<circle class="st0" cx="85.1" cy="27.6" r="23.3"/>
	<g>
		<path class="st0" d="M9.8,82.9c1.7,2.3,5.4,6,12.3,6.3c6.5,0.3,10.5-1,12.6-1.3c4.5-0.6,7.5-0.7,9.9-0.7
			c14.8,0.2,27.4,1.7,40.5,2.1c13-0.3,25.7-1.8,40.5-2.1c2.4,0,5.4,0.1,9.9,0.7c2.1,0.3,6.2,1.6,12.6,1.3c6.9-0.3,10.6-4,12.3-6.3
			c2-2.6,6.7-9.6,9.4-13.7c0.8-1.1-0.2-2.6-1.6-2.4c-5.4,1.1-15.4,3.1-18.5,3.6c-3,0.5-10.5,1.3-18.6,2.3c-15,1.9-29.9,4-46.1,4.4
			c-16.3-0.4-31.2-2.5-46.1-4.4c-8.1-1-15.6-1.8-18.6-2.3c-3.1-0.5-13-2.5-18.5-3.6c-1.3-0.3-2.3,1.2-1.6,2.4
			C3,73.3,7.7,80.2,9.8,82.9L9.8,82.9z"/>
		<path class="st0" d="M168.3,105.1c-5.4,1.1-15.4,3.1-18.5,3.6c-3,0.5-10.5,1.3-18.6,2.3c-15,1.9-29.9,4-46.1,4.4
			c-16.3-0.4-31.2-2.5-46.1-4.4c-8.1-1-15.6-1.8-18.6-2.3c-3.1-0.5-13-2.5-18.5-3.6c-1.3-0.3-2.3,1.2-1.6,2.4
			c2.7,4.1,7.4,11.1,9.4,13.7c1.7,2.3,5.4,6,12.3,6.3c6.5,0.3,10.5-1,12.6-1.3c4.5-0.6,7.5-0.7,9.9-0.7c14.8,0.2,27.4,1.7,40.5,2.1
			c13-0.3,25.7-1.8,40.5-2.1c2.4,0,5.4,0.1,9.9,0.7c2.1,0.3,6.2,1.6,12.6,1.3c6.9-0.3,10.6-4,12.3-6.3c2-2.6,6.7-9.6,9.4-13.7
			C170.6,106.3,169.6,104.8,168.3,105.1L168.3,105.1z"/>
		<path class="st0" d="M168.3,143.4c-5.4,1.1-15.4,3.1-18.5,3.6c-3,0.5-10.5,1.3-18.6,2.3c-15,1.9-29.9,4-46.1,4.4
			c-16.3-0.4-31.2-2.5-46.1-4.4c-8.1-1-15.6-1.8-18.6-2.3c-3.1-0.5-13-2.5-18.5-3.6c-1.3-0.3-2.3,1.2-1.6,2.4
			c2.7,4.1,7.4,11.1,9.4,13.7c1.7,2.3,5.4,6,12.3,6.3c6.5,0.3,10.5-1,12.6-1.3c4.5-0.6,7.5-0.7,9.9-0.7c14.8,0.2,27.4,1.7,40.5,2.1
			c13-0.3,25.7-1.8,40.5-2.1c2.4,0,5.4,0.1,9.9,0.7c2.1,0.3,6.2,1.6,12.6,1.3c6.9-0.3,10.6-4,12.3-6.3c2-2.6,6.7-9.6,9.4-13.7
			C170.6,144.6,169.6,143.1,168.3,143.4L168.3,143.4z"/>
	</g>
</g>
</svg>
